<?xml version="1.0" encoding="utf-8"?>
<!-- Generator: Adobe Illustrator 22.1.0, SVG Export Plug-In . SVG Version: 6.00 Build 0)  -->
<svg version="1.1" id="Layer_1" xmlns="http://www.w3.org/2000/svg" xmlns:xlink="http://www.w3.org/1999/xlink" x="0px" y="0px"
	 viewBox="0 0 547.2 175.5" style="enable-background:new 0 0 547.2 175.5;" xml:space="preserve">
<style type="text/css">
	.st0{fill:#4F2683;}
	.st1{fill:#807F83;}
	.st2{fill:#FFFFFF;}
</style>
<path class="st0" d="M349.7,31.2c-0.9,1-2.2,1.6-3.7,1.6c-3.4,0-5.5-1.4-10.6-1.4c-8.8,0-15.7,4.8-15.7,13.5
	c0,17.8,27.3,14,27.3,26.8c0,5.8-4.2,8.6-9.5,8.6c-9.8,0-15.5-6.4-17.7-15.7h-2.4l3.3,17.9c1.1-1.2,2.5-1.7,3.8-1.7
	c2.8,0,6.4,2.2,12.8,2.2c10.2,0,17.9-5.7,17.9-15.4c0-19.3-27.8-14.2-27.8-26.7c0-4,2.8-6.9,7.9-6.9c8.1,0,12.6,5.7,14.6,12.5h2.4
	L349.7,31.2z M488.2,79.4v2.5H515v-2.5H507v-26c0-9.3,4.8-18.3,13.8-18.3c5.1,0,8.2,2.9,8.2,10.4v33.9h-7.9v2.5h26v-2.5h-7.9V45.7
	c0-10-4.9-14.3-14.7-14.3c-8.2,0-14.2,4-17.3,10.8H507v-11c-1.3,1.1-3.2,2.4-7.6,2.4c-2.9,0-10.6,0-10.6,0v2.5h8v43.2H488.2z
	 M390.7,73.3c-1.3,2.9-3.4,5.8-7.1,5.8c-3.8,0-5.4-2.4-5.4-8.3V36.1h12.3v-2.5h-12.3V17.1h-2.1c-1.4,10.7-6.7,16.1-16.4,17.1v2l0,0
	h0h8.1v34.2c0,6.4,1.2,12.5,11.7,12.5c6.6,0,10.5-3,12.6-7l0.8-1.6L390.7,73.3z M485.6,38.4c0-4-2.9-7-8.4-7
	c-8.1,0-12.2,7.3-14.3,13.1h-0.1V31c-1.6,1.3-3.3,2.6-7.6,2.6c-3.1,0-11.2,0-11.2,0v2.5h8.6v43.2H444v2.5h27.1v-2.5h-8.3V58.1
	c0-11.3,5.6-23.7,12.7-23.7c0.5,0,0.9,0.1,1.2,0.2c-1.2,1-2,2.5-2,4.2c0,3.1,2.4,5.4,5.4,5.4C483.3,44.2,485.6,41.5,485.6,38.4z
	 M308.4,68c-2.8,6.6-7.5,11.9-16.2,11.9c-12.9,0-14.8-9.8-14.8-24.9v-0.8h33.2c0-13.4-7.4-22.6-21.3-22.6
	c-15.1,0-23.3,11.7-23.3,25.7c0,14.7,7.7,25.7,23.2,25.7c9.6,0,17.4-3.6,21.5-14.3L308.4,68z M277.5,48.9
	c0.5-7.5,3.3-14.7,11.1-14.7c8.4,0,10.2,6.5,10.4,13.5c0,0.6,0,2.9,0,3.5h-21.6C277.4,50.5,277.4,49.6,277.5,48.9z M437.8,68
	C435,74.7,430.3,80,421.6,80c-12.9,0-14.8-9.8-14.8-24.9v-0.8H440c0-13.4-7.4-22.6-21.3-22.6c-15.1,0-23.3,11.7-23.3,25.7
	c0,14.7,7.7,25.7,23.2,25.7c9.6,0,17.4-3.6,21.5-14.3L437.8,68z M406.9,48.9c0.5-7.5,3.3-14.7,11.1-14.7c8.4,0,10.2,6.5,10.4,13.5
	c0,0.6,0,2.9,0,3.5h-21.6C406.8,50.5,406.8,49.6,406.9,48.9z M222.6,31c-4.4,12.7-18.1,52-18.1,52h-2L180,22l-3.7-9.7h-7V9.8h28.7
	v2.5h-9l2.8,8.2l15.6,43.2h0.2l13-37.5l-5.1-13.8h-8.7V9.8h31.3v2.5h-10.1l2.8,8l15.9,43.4h0.2L261,20.5l2.4-8.2h-9V9.8h20.3v2.5
	h-7.3l-3.2,9l-20.2,61.7h-2.2L222.6,31z"/>
<g>
	<path class="st1" d="M207.6,141.7c-8.7-3.6-19.3-7.9-19.3-21.3c0-11.1,8-19,20.9-19c6.4,0,9.5,2.3,13.8,2.3c1.9,0,3.6-1,4.8-2.6
		l3.5,19.9h-2.9c-2.5-8.7-9.2-16.8-19.2-16.8c-7.5,0-13.2,3.8-13.2,11.3c0,6.6,5.3,9.9,8.1,11.2c2.1,1,13,5.3,15.4,6.4
		c5.8,2.8,15.9,7.4,15.9,20c0,11.7-7.4,22.1-24.5,22.1c-6.8,0-12.3-3.1-16.8-3.1c-2,0-3.9,1-5.1,2.7l-4-23.2h3
		c3,10.2,10.5,20.6,23.2,20.6c10.8,0,16.1-5.9,16.1-12.9C227.3,150.2,219.5,146.5,207.6,141.7z"/>
	<path class="st1" d="M288,158.7c-3.4,10.4-9.4,16.7-21.6,16.7c-14.7,0-23.6-10.9-23.6-25.4c0-14.4,9.9-25.9,25-25.9
		c10.8,0,18.4,5.4,18.4,12.6c0,3.3-2.3,6-5.6,6c-3.2,0-5.7-2.5-5.7-5.7c0-2.5,1.8-4.7,4.2-5.4c-2.3-3.8-7.2-4.9-10.6-4.9
		c-12.2,0-14.3,15.3-14.3,22.7c0,10.5,2.7,22.7,14.6,22.7c9.3,0,14.3-5.9,16.8-14.4L288,158.7z"/>
	<path class="st1" d="M309.6,136v27.2l0.1,8.7h8.2v2.4h-27.1v-2.4h8.8l0.1-8.7V136l-0.1-7.4h-8.9V126c7.8,0,11.5,0,11.5,0
		c4.5,0,6.3-1.3,7.7-2.3L309.6,136z M304.3,114.9c3.2,0,5.9-2.7,5.9-5.9c0-3.3-2.8-6-5.9-6c-3.4,0-6,2.8-6,6
		C298.3,112.3,301,114.9,304.3,114.9z"/>
	<path class="st1" d="M366.3,161.1c-4.1,10.6-11.9,14.3-21.5,14.3c-15.6,0-23.3-11.1-23.3-25.7c0-14.1,8.2-25.8,23.4-25.8
		c13.9,0,21.3,9.2,21.3,22.6h-33.3v0.8c0,15.1,1.9,25,14.8,25c8.7,0,13.4-5.3,16.2-12L366.3,161.1z M332.9,143.7h21.6
		c0-0.6,0-3.1,0-3.8c-0.2-6.9-2-13.5-10.4-13.5c-7.9,0-10.6,7.2-11.1,14.7C332.9,141.8,332.9,142.9,332.9,143.7z"/>
	<path class="st1" d="M377.7,171.9l0.1-8.8l0.1-27.9l-0.1-6.6h-8.1V126c7.8,0,10.6,0,10.6,0c4.5,0,6.3-1.3,7.7-2.3v11.2h0.2
		c3.1-6.7,9.1-10.7,17.2-10.7c9.8,0,14.7,4.3,14.7,14.3v24.7l0.1,8.8h7.9v2.3h-26v-2.3h7.7l0.2-8.8V139c0-5.5-1-11.2-8-11.2
		c-9.3,0-14,9-14,18.3v17.1l0.1,8.8h7.8v2.3h-26.6v-2.3H377.7z"/>
	<path class="st1" d="M476.5,158.7c-3.4,10.4-9.4,16.7-21.6,16.7c-14.7,0-23.6-10.9-23.6-25.4c0-14.4,9.9-25.9,25-25.9
		c10.8,0,18.4,5.4,18.4,12.6c0,3.3-2.3,6-5.6,6c-3.2,0-5.7-2.5-5.7-5.7c0-2.5,1.8-4.7,4.2-5.4c-2.3-3.8-7.2-4.9-10.6-4.9
		c-12.2,0-14.3,15.3-14.3,22.7c0,10.5,2.7,22.7,14.6,22.7c9.3,0,14.3-5.9,16.8-14.4L476.5,158.7z"/>
	<path class="st1" d="M526,161.1c-4.1,10.6-11.9,14.3-21.5,14.3c-15.6,0-23.3-11.1-23.3-25.7c0-14.1,8.2-25.8,23.4-25.8
		c13.9,0,21.3,9.2,21.3,22.6h-33.3v0.8c0,15.1,1.9,25,14.8,25c8.7,0,13.4-5.3,16.2-12L526,161.1z M492.7,143.7h21.6
		c0-0.6,0-3.1,0-3.8c-0.2-6.9-2-13.5-10.4-13.5c-7.9,0-10.6,7.2-11.1,14.7C492.7,141.8,492.7,142.9,492.7,143.7z"/>
</g>
<g>
	<path class="st2" d="M140.4,72.4l0-62.9C124.1,3.7,98.5,0,69.7,0C41.4,0,16.3,3.7,0,9.5l0,63.8c0,9.4-0.4,26.1,8.1,46
		c10.6,24.8,31.2,43.4,60.5,55l1.5,0.6l1.5-0.6c29.4-11.7,49.9-30.3,60.6-55.1C140.8,99.4,140.4,81.4,140.4,72.4z"/>
	<path class="st0" d="M140.4,72.4l0-62.9C124.1,3.7,98.5,0,69.7,0C41.4,0,16.3,3.7,0,9.5l0,63.8c0,9.4-0.4,26.1,8.1,46
		c10.6,24.8,31.2,43.4,60.5,55l1.5,0.6l1.5-0.6c29.4-11.7,49.9-30.3,60.6-55.1C140.8,99.4,140.4,81.4,140.4,72.4z M85.5,141.2
		c-0.3,0.1-0.7,0.2-1,0.4c-0.2,0.1-0.3,0.2-0.3,0.3c0,0.1,0.1,0.3,0.2,0.3c-0.2,0.7-1.8,0.6-2.3,0.8c-0.4,0.2-1,0.6-1.3,1
		c-0.3,0.3-0.2,0.2-0.7,0.3c-0.9,0.2-0.7,1-0.4,1.6c0.3,0.6,0.7,1.1,1.3,1.5c0.2,0.1,1.1,0.5,1.6,0.5c-0.5,0.5-1.1,0.4-1.7,0.6
		c-0.3,0.1-0.6,0.3-1,0.4c-0.5,0.1-0.8,0.1-1.2,0c-0.6-0.1-1.2-0.1-1.7,0c-0.4,0-0.7,0-1.1-0.2c-0.2-0.1-0.5-0.3-0.6-0.3
		c-0.5-0.1-0.1,0.6,0,0.9c-0.7,0.6-2.2-0.2-2.8-0.6c-0.5-0.3-0.8-1.1-1.4-1.3c0,0.6,0,1.3,0,1.9c0.1,2,0.1,3.9,0.2,5.9
		c0,1.1,0.1,2.3,0.1,3.4h-2.2l0.3-11.3c-0.7,0-1,0.7-1.5,0.9c-0.3,0.2-0.7,0.1-1,0.3c-0.3,0.2-0.5,0.5-0.9,0.7
		c-0.3,0.1-0.8,0.2-1.1,0.2c-0.5,0-1-0.1-1.2-0.4c0.2-0.4,0-0.8-0.3-1c-0.3-0.2-0.8,0.1-1.1,0.2c-1.5,0.4-3.3-0.6-4.6-1.1
		c0,0,3.3-0.6,3.3-2.5c0-0.5-0.3-1-0.7-1.3c-0.4-0.3-1.1-0.7-1.6-0.8c-0.8-0.1-1.4,0.1-1.9-0.1c0.1-0.3-0.4-0.6-0.7-0.9
		c-0.3-0.2-0.7-0.4-1.1-0.5c-0.7-0.3-1.7-1-1.4-1.8c0.5,0.3,1,0.3,1.5,0.1c0.4-0.2,0.5-0.5,0.5-1c0-0.6-0.7-1-0.9-1.5
		c-0.2-0.4-0.4-0.7-0.7-1c-0.3-0.2-0.8-0.3-0.8-0.8c0.6,0.2,0.8-0.3,0.4-0.7c-0.4-0.5-1-0.7-1.3-1.3c-0.3-0.5-0.5-1.1-0.5-1.7
		c0-0.2,0-0.7,0.3-0.7c0.2-0.1,0.3,0.3,0.4,0.4c0.4,0.6,1,0.9,1.6,1.1c0.7,0.4,1,0.6,1.8,0.7c1.6,0.3,2.6,0,3.5-0.8
		c0.2-0.1,0.6-0.4,0.7-0.4c0.3,0.5,1.2,1.3,2,1.6c0.6,0.2,1.3,1,1.6,1.3c1.1,1,1.8,0.4,1.8-0.5c0-0.8-0.3-1.8-0.5-2.5
		c-0.3-1.2-0.5-1.8-0.7-3c-0.1-0.8-0.5-1.4-0.8-1.9c-0.3-0.5-0.7-1.9,0.3-1.4c0.4,0.2,1,0.6,1.5,0.5c1.2-0.2,1.3-1.4,1.5-2.4
		c0.1-0.5,0.1-0.9,0.3-1.4c0.1-0.3,0.2-0.5,0.4-0.5c0,0.1,0.2,0.4,0.5,0.4c0.5,0,0.8-0.8,0.9-1.2c0.1-0.4,0.2-0.8,0.3-1.2
		c0.2-0.6,0.3-1.3,0.6-2c0.1,0.4,0.3,1.2,0.4,1.5c0.3,0.7,0.5,1.4,0.9,2c0.4,0.5,0.8,0.7,1.4,0.4c0.3,0.7,0.3,2.8,0.8,3.8
		c0.3,0.6,0.8,0.8,1.3,0.8c0.5,0,0.8-0.1,1.1-0.3c0.4-0.2,0.8-0.5,1.1-0.5c0.1,0,0.2,0.1,0.2,0.2c0,0.5-0.7,1.7-0.8,1.9
		c-0.2,0.6-0.6,1.3-0.7,1.9c-0.1,0.5-0.3,1.1-0.4,1.7c-0.1,0.6-0.2,1.3-0.3,2.2c0,0.5,0,1.5,0.4,1.8c0.6,0.4,1.4-0.4,1.8-0.8
		c0.6-0.5,1.1-0.9,1.5-1.5c0.3-0.4,1-1.6,1.6-1.6c0,0.5,0.6,1.1,1.6,1.3c0.6,0.1,1.1,0,1.5-0.3c0.5-0.3,0.5-0.3,1-0.1
		c1.1,0.4,3-1,3.7-1.6c0.2,0.2,0,0.7-0.3,1.1c-0.5,0.8-1.1,1.1-1.1,1.7c0,0.5-0.7,1.5-0.6,2.1c-0.2,0.3-0.8,0.7-1.1,0.9
		c-0.8,0.7-1.3,1.5-1,2.6c0.3,1,1,1.4,1.8,1.4c0.7,0,1.2-0.5,1.5-0.4c0.1,0.1-0.2,0.5-0.4,0.7C86.6,140.8,86,141.1,85.5,141.2z
		 M127.4,52.2H13l-7.3-7.7l14.6,4.9c-1.2-3.6-4.5-4.9-6.7-8c-1.3-1.8-1.7-3.7-1.6-5.6c0.4,0.7,1.1,1.6,2.2,2.4
		c1.1,0.7,2.5,1.3,4.4,1.7c3.4,0.7,5.2,1.8,6.7,3.2l-7.5-13.4L30.8,38c-0.5-3.8-3.2-5.8-4.5-9.3c-0.8-2.1-0.8-4-0.1-5.8
		c0.2,0.8,0.7,1.8,1.5,2.8c0.8,1,2.1,1.9,3.8,2.8c3.3,1.6,4.7,3.2,5.8,5l-4-15l10.3,11.2c0.4-3.8-1.6-6.4-2-10.1
		c-0.2-2.2,0.2-4.1,1.3-5.7c0,0.8,0.2,1.9,0.8,3.1c0.6,1.1,1.5,2.3,3,3.6c2.9,2.5,3.8,4.4,4.5,6.5l-0.1-15.7l7.2,13.3
		c1.4-3.4-0.1-6.5,0.5-10.2c0.3-2.2,1.3-3.9,2.7-5.2c-0.2,0.8-0.3,1.9,0,3.2c0.3,1.2,0.9,2.6,2,4.3c2.2,3.2,2.7,5.3,2.7,7.6l0,0
		L70.2,9l3.7,14.8c2.2-3,1.7-6.5,3.1-10c0.9-2.1,2.2-3.3,3.9-4.2c-0.4,0.7-0.8,1.8-0.8,3.1C80,14,80.3,15.5,81,17.4
		c1.3,3.5,1.2,5.7,0.8,7.8l7.5-13.8l-0.1,15.2c2.9-2.3,3.1-5.9,5.4-8.8c1.4-1.8,3-2.6,4.9-3.1c-0.5,0.6-1.2,1.5-1.6,2.8
		c-0.4,1.2-0.5,2.8-0.3,4.7c0.4,3.8-0.2,5.9-1.2,7.9l0,0L107,18.5l-3.9,14.6c3.2-1.5,4.4-4.7,7.3-6.9c1.8-1.4,3.5-2.1,5.4-2
		c-0.6,0.4-1.5,1.2-2.2,2.3c-0.7,1.1-1.1,2.5-1.4,4.5c-0.6,3.8-1.7,5.6-3.1,7.3l0.1,0l13.3-8.6l-7.4,13.2c3.6-0.5,5.3-3.4,8.7-4.9
		c2.1-0.9,4-1.1,5.8-0.6c-0.7,0.3-1.8,0.8-2.7,1.7c-0.9,0.9-1.7,2.2-2.5,4c-1.5,3.5-3,5-4.9,6.3l0.1,0.1l15.1-5L127.4,52.2z
		 M68.1,84.6c-0.2-0.3-1-2.1-5.4-2.1H49.9V61.7h0.9v19.8h11.7c0.9,0,1.7,0.1,2.3,0.2c2.4,0.4,3.3,1.3,3.8,2h3c0.4-0.7,1.4-1.6,3.7-2
		c0.7-0.1,1.4-0.2,2.3-0.2h11.7V61.8h0.9v20.6H77.6c-4.4,0-5.1,1.8-5.3,2.1H68.1z M69.7,81v1c-1.8-3.4-9.9-2.8-16.9-2.1V60.7
		c3.7,0,7.4-0.5,10.3-0.5c3.6,0,6.1,0.6,6.6,2.7v17.3c-2.2-2.6-8.8-2.4-15.8-1.7v0.6C60.8,78.3,68,78.1,69.7,81z M55.2,73.5
		c0.8,0,1.7,0,2.4,0c0.9,0,1.6,0,2.4,0v-0.4h-0.4c-1.2,0-1.3-0.1-1.3-0.9v-3.3c0-0.9,0.1-1,0.9-1h0.7v-0.4c-0.8,0-1.5,0-2.4,0
		c-0.7,0-1.6,0-2.4,0v0.4h0.7c0.8,0,0.9,0.1,0.9,1v3.3c0,0.8-0.1,0.9-1.3,0.9h-0.4V73.5z M63.4,69.4c-0.9-0.5-1.5-1.3-1.5-2.3
		c0-0.9,0.6-2.4,2.7-2.4c1.6,0,2.3,1,2.3,1.9c0,1-0.3,1.5-1.7,2.1c1.3,0.7,1.9,1.4,1.9,2.4c0,1.4-1.1,2.5-2.8,2.5
		c-1.5,0-2.5-1.1-2.5-2.2C61.8,70.3,62.7,69.7,63.4,69.4z M65.7,71.8c0-0.8-0.4-1.2-1.9-2.2c-0.7,0.4-1.1,1.1-1.1,1.8
		c0,1.2,0.9,1.8,1.6,1.8C65.3,73.2,65.7,72.4,65.7,71.8z M64.9,68.6c0.6-0.5,1-1,1-1.8c0-1-0.7-1.6-1.4-1.6c-0.9,0-1.3,0.7-1.3,1.4
		C63.2,67.3,63.7,67.9,64.9,68.6z M77.3,60.2c2.9,0,6.5,0.5,10.3,0.5v19.2c-6.9-0.7-15.1-1.2-16.9,2.1v-1c1.6-3,8.9-2.8,15.8-2.1
		v-0.6c-7-0.7-13.6-0.9-15.8,1.7V62.9C71.1,60.7,73.6,60.2,77.3,60.2z M72.7,69.7h0.4l0.3-0.8H77l-3.5,7.2l0.7,0.2l4.4-8.6l-0.1-0.1
		h-5.4L72.7,69.7z M81.4,69.4c-0.9-0.5-1.5-1.3-1.5-2.3c0-0.9,0.6-2.4,2.7-2.4c1.6,0,2.3,1,2.3,1.9c0,1-0.3,1.5-1.7,2.1
		c1.3,0.7,1.9,1.4,1.9,2.4c0,1.4-1.1,2.5-2.8,2.5c-1.5,0-2.5-1.1-2.5-2.2C79.7,70.3,80.7,69.7,81.4,69.4z M83.7,71.8
		c0-0.8-0.4-1.2-1.9-2.2c-0.7,0.4-1.1,1.1-1.1,1.8c0,1.2,0.9,1.8,1.6,1.8C83.2,73.2,83.7,72.4,83.7,71.8z M82.9,68.6
		c0.6-0.5,1-1,1-1.8c0-1-0.7-1.6-1.4-1.6c-0.9,0-1.3,0.7-1.3,1.4C81.1,67.3,81.7,67.9,82.9,68.6z M113,139.8l-42.8-34.9l-42.8,34.9
		C5.3,114.1,5.4,84.5,5.5,72.3V52.2h0.1l64.6,52.7l64.6-52.7h0.1l0,20.1C135,84.5,135.1,114.1,113,139.8z M32.8,121
		c9.1,0,16.5-7.4,16.5-16.6c0-9.2-7.4-16.6-16.5-16.7c-9.1,0-16.5,7.4-16.5,16.6C16.3,113.5,23.7,121,32.8,121z M43.5,97.5
		c0,0.5-0.2,1.3-0.4,1.6c-0.2,0.1-0.6,0.1-1,0.1c-0.2,0-0.3,0-0.4,0.3c-0.4,0.7-0.8,1.3-1.2,2.2c-0.1,1-0.1,1.9-0.2,3.1
		c0,0.4,0,0.9-0.2,1.4c-0.4,0.5-0.8,0.8-1.1,1c-0.1,0-0.2,0.2,0.1,0.1c0.2,0,0.9-0.4,1.1-0.5c0.5-0.2,1.2-0.8,2,0
		c0.4,0.4,1,0.8,1.8,1.3c0.3,0.2,0.4,0.2,0.8,0.5c0.3,0.3,0.4,0.8,0.6,1.1c0.5,0.8,0.5,1.3,0.5,1.5c-0.3,0.2-1.4,0.2-1.8,0
		c-0.2-0.3-0.1-0.7-0.2-0.9c-0.2-0.4-0.3-0.6-0.5-0.7c-0.3-0.2-0.6-0.5-0.9-0.7c-0.8-0.5-0.9-0.6-1.5-0.3c-0.6,0.3-1.4,1.1-2.4,1.5
		c-0.7,0.4-2.7,0-3.2-0.5c0.2,0.5,1.3,1.1,2.1,1.5c-0.1,0.3-0.4,1.8-1,2.7c0-0.2-0.2-0.4-0.4-0.4c-0.6,0-0.5,1.2-1,1.8
		c0-0.2-0.2-0.4-0.4-0.4c-0.5,0-0.5,1.1-1,1.7c-0.1-0.2-0.2-0.4-0.4-0.4c-0.2,0-0.5,0.2-0.7,0.4c-0.7,0.8-1,1.2-1.7,1.9
		c-2.3-0.1-5.6-1.7-6.8-3.1c2.1-2.3,4.1-4.6,5-5.3c0.5-1.4,1.8-4.2,2.3-5.5c-0.1-0.1-0.1-0.3-0.2-0.4c-0.3,0.2-0.7,0.2-0.9,0.1
		c0.1-0.4,0.2-1,0-1.4c-0.2,0.1-0.6,0.2-0.8,0.1c0.2-0.4,0.2-1,0-1.4c0,0,0,0,0,0c-0.3,0.1-0.6,0.2-0.8,0.1c0.1-0.5,0.2-1,0.1-1.6
		c0,0,0-0.1-0.1-0.1c-0.4,0.2-1.8,0.5-2.2,0.3c-0.2-0.2,1-1.4,2.1-2.5c-1,0.4-2.2,0.9-4.2,1.3c-1.1,0.2-3.4,0.6-5.1,0.3
		c-0.3,0-0.2-0.4,0-0.4c0.9,0,2,0,2.9-0.3c0.2-0.1,0.6-0.3-0.1-0.4c-0.7-0.1-2-0.3-2.6-0.6c-0.2-0.1-0.1-0.3,0.1-0.3
		c0.8,0.1,1.7,0.2,2.4,0.3c0.4,0,0.6,0,0.3-0.3c-0.2-0.2-0.7-0.5-1.3-0.8c-0.1-0.1-0.1-0.2,0-0.3c0.4-0.1,2.2,1,3.4,1.3
		c0.3,0.1,0.5,0.1,0.7,0.1c0.2,0,0.3-0.2,0.3-0.3c-0.1-0.3-1.2-0.8-1.8-1.2c-0.2-0.2,0-0.3,0.3-0.3c0.6,0.2,2.1,0.9,2.7,1
		c0.5,0.1,0.7-0.1,0.7-0.2c-0.1-0.4-2-1.3-2.5-1.6c-0.1-0.1,0-0.2,0.2-0.2c1,0.1,3,1.5,3.9,1.3c0.1,0,0.2-0.1,0.2-0.2
		c-0.1-0.4-1.7-1.3-2.1-1.5c-0.2-0.1,0-0.3,0.3-0.2c0.6,0.1,1.5,0.6,2.1,0.9c0.3,0.1,0.5,0.2,0.8,0.1c0.4-0.1,0.7-0.4,0.5-1.2
		c-0.2-0.8-0.9-1.1-1.4-1.2c-0.6-0.2-0.1-0.4,0.3-0.3c0.9,0.2,1.6,0.6,1.8,1.5c0,0.1,0,0.3,0,0.5c0,0.5,0.3,0.3,0.6-0.1
		c0.5-0.7,0.6-1.5,0.5-2c-0.2-0.9-1.4-1.2-1.4-1.4c0-0.1,0.1-0.1,0.1-0.1c0.5-0.1,1.7,0.5,1.9,1.5c0.1,0.5,0,0.8-0.1,1.4
		c0,0.1,0.1,0.2,0.2,0c0.6-0.6,1.1-1.7,0.9-2.7c-0.2-1.1-1.3-1.4-1.3-1.6c0,0,0.1-0.1,0.2-0.1c0.4-0.1,1.7,0.6,1.9,1.8
		c0.2,1-0.3,3.2-3.5,4.9c1.4-0.3,1.7-0.3,1.9-0.1c1.6-0.4,2.6-0.7,3-0.6c0.4,0.7-0.5,0.9-0.5,1.4c0,0.5,1.1-0.3,0.9,0.4
		C36.4,98,36,98,35.5,98.2c-0.2,0.2-1.2,0.9-1.7,1.3c1.6,1.1,3.2,2.7,3.3,2.8c0.1,0.2,0.5,0.9,0.9,2c0,0,0,0,0,0.1
		c0.2-0.7,0.6-1.8,0.7-2.3c0.1-0.5,0.1-0.6,0.2-0.9c0.1-0.2,0.6-0.6,1-1.2c0.3-0.5,0.9-1.3,1.1-1.6c0.3-0.5,0.7-0.4,1.3-0.6
		C42.5,97.5,43.2,97.5,43.5,97.5z M31.2,97.6c0.1-0.1,0.2-0.2,0.3-0.3c0.3-0.1,0.6-0.2,0.8-0.3c0.1,0.2,0.1,0.5-0.1,0.7
		c-0.2,0.2-0.4,0.1-0.6,0c-0.1-0.1-0.3-0.1-0.3-0.1C31.2,97.7,31.2,97.6,31.2,97.6z M91,104.4c0-9.2,7.4-16.6,16.5-16.6
		c9.1,0,16.5,7.5,16.5,16.7c0,9.2-7.4,16.6-16.5,16.6C98.3,121,91,113.4,91,104.4z M115.1,93c0.1,0.1,0.2,0.3,0.2,0.4
		c0,0.4-0.3,0.8-0.7,0.8c-0.4,0-0.7-0.3-0.8-0.7c0-0.4,0.3-0.7,0.6-0.8l-0.9-1.3l-1.5,0.6c0.2,0.1,0.3,0.3,0.3,0.5
		c0,0.4-0.3,0.8-0.7,0.8c-0.4,0-0.8-0.3-0.8-0.7c0-0.3,0.2-0.6,0.5-0.7c-0.4-0.5-1.4-1.2-2.3-1.5c0.7,1.3,1.1,2.8,1,4.1
		c0.9-0.1,3.5,0.7,4.5,1.5c0.8-1.2,2-2.3,3.3-2.7C117.2,93.1,116,92.9,115.1,93z M110.5,96.4c-0.1,0-0.2,0-0.3,0
		c-0.1,0-0.1-0.1-0.2-0.1c0,0-0.1-0.2-0.4-0.2c-0.4,0-0.7,0.3-0.7,0.5c0,0.2,0,0.3,0.1,0.4c0.1,0.1,0.2,0.2,0.3,0.2
		c0.1,0,0.2,0,0.3,0l0,0c0.2-0.1,0.3-0.3,0.3-0.4c0-0.1,0.2-0.2,0.5-0.2C110.5,96.5,110.5,96.5,110.5,96.4
		C110.5,96.4,110.5,96.4,110.5,96.4z M106,96.6c-0.1,0.2-0.1,0.3-0.1,0.4c0,0,0.1,0.1,0.1,0.1c-0.1,0.2,0,0.6,0.1,1
		c0.1,0.3,0.3,0.4,0.7,0.4c0,0.1,0,0.2,0,0.3c0,0,0,0,0,0c-0.3,0.1-0.5,0.1-0.7,0.1c-0.7,0-1.1-0.4-1-1.1c0-0.1,0-0.2,0.1-0.3
		c0-0.1,0-0.1-0.1-0.1c-0.2-0.1-1,0.5-1.1,1.3c-0.1,0.8,0.3,1.2,1,1.2c0.3,0,0.8,0,1.3-0.2c0.9-0.3,1.8-0.5,2.4,0.1
		c-0.4-0.1-1.6,0-1.9,0.1c-0.5,0.1-0.7,1.1-0.2,1.2c0.4,0,2-0.1,2.1,0c-0.2,0.7-1.2,1.5-2.1,1.7c-0.6-0.2-2.3-0.2-3.1,0
		c-1-1.1-1.7-3.2-1.8-3.9c0-0.3,0-0.7,0.1-1c0.3-0.6,0.9-0.5,1.2-1c0.2-0.3,0.1-0.6,0.1-0.9c0-0.1,0.3-0.6,0-0.7
		c-0.1,0.2-0.4,0.3-0.6,0.2c-0.2-0.1-0.4-0.1-0.6,0c-0.3,0.2-0.4,0.6-0.7,0.9c-0.1,0.2-0.3,0.1-0.3-0.2c0.1-0.4,0.3-0.8,0.2-1.2
		c-0.1-0.4-0.4-0.7-0.8-1c-0.2-0.1-0.4-0.3-0.6-0.3c-0.2-0.1-0.4,0-0.4,0.1c0.1,0.1,0.2,0.2,0.2,0.3c0,0.4-0.4,0.6-0.4,0.9
		c0,0.5,0.4,1,0.4,1.3c0,0.2-0.1,0.2-0.3,0.1c-0.3-0.1-0.7-0.4-1.1-0.4c-0.3,0-0.5,0.3-0.8,0.4c-0.1,0-0.6,0-0.5,0.3
		c0.3,0.1,0.5,0.2,0.6,0.5c0.1,0.2,0.1,0.4,0.3,0.5c0.3,0.2,1,0.2,1.3,0.2c0.2,0,0.4,0.2,0.5,0.6c0,0.3-0.1,0.6-0.2,0.9
		c-0.2,0.4-0.4,0.9-0.3,1.3c0.1-0.2,0.2-0.2,0.4-0.2c0.3,0,0.4,0.3,0.2,0.8c-0.2,0.4-0.3,0.8-0.1,1.3c0.1-0.2,0.2-0.3,0.4-0.3
		c0.2,0,0.4,0.3,0.2,0.8c-0.2,0.4-0.2,0.9,0,1.3c0.1-0.2,0.2-0.3,0.4-0.3c0.3,0,0.4,0.3,0.5,0.5c0.3,0.8,0.8,1.2,2.1,1.2
		c-0.4,0.8-4,0.3-5.5,0.1c-0.3,0-0.5-0.1-0.6-0.4c-0.2-0.6,0.3-1,0-1.6c-0.1-0.3-0.4-0.4-0.6-0.5c-0.1-0.1-0.4-0.5-0.7-0.3
		c0.1,0.2,0.1,0.4-0.2,0.6c-0.2,0.1-0.3,0.3-0.4,0.5c-0.1,0.4,0.3,0.8,0.4,1.1c0.1,0.3-0.1,0.4-0.3,0.2c-0.3-0.3-0.8-0.9-1.4-0.9
		c-0.4,0-0.5,0.2-0.7,0.3c-0.1,0.1-0.7,0.1-0.6,0.4c0.2,0,0.5,0.2,0.5,0.5c0,0.2,0.1,0.4,0.3,0.6c0.5,0.4,1.2,0.2,1.7,0.3
		c0.2,0,0.2,0.2,0,0.3c-0.4,0.2-0.9,0.4-1.1,0.8c-0.2,0.3-0.1,0.7-0.1,1c0,0.1-0.2,0.6,0.1,0.6c0.1-0.2,0.4-0.3,0.7-0.3
		c0.2,0,0.4,0.1,0.6,0c0.4-0.2,0.4-0.5,0.6-0.9c0.1-0.2,0.3-0.3,0.5-0.3c0.2,0,0.3,0,0.4,0.2c0.3,0.3,0.3,0.9,1.1,1
		c0-0.1-0.1-0.2-0.1-0.3c0-0.2,0.1-0.3,0.3-0.3c0.2,0,0.3,0.1,0.5,0.4c0.2,0.4,0.5,0.5,0.9,0.6c-0.1-0.1-0.1-0.2-0.1-0.3
		c0-0.2,0.1-0.3,0.3-0.3c0.1,0,0.3,0,0.4,0.3c0.3,0.4,0.4,0.6,0.9,0.7c-0.1-0.3,0-0.6,0.3-0.6c0.3,0,1.2,0.3,1.8,0.6
		c0,1.6,1,3.3,2.6,4.4c-0.1-0.3,0.1-0.5,0.3-0.5c0.6,0,1,1.5,2.4,2.2c-0.1-0.3,0.1-0.5,0.3-0.5c0.2,0,0.4,0.1,0.5,0.2
		c1.3,0.7,2.6,1.5,3.3,2.1c1.3-0.4,3.5-1.7,4.9-3.1c-0.9-0.3-3.3-2.1-4.1-2.9c-1.5-1.5-1.9-3.2-1.9-4.4c0-0.4,0.1-0.8,0.2-1.1
		c0.4,0.3,1.1,0.2,1.4-0.1c-0.7-0.5-0.6-1.6-0.4-2c0.4,0.3,1.1,0.2,1.4-0.1c-0.5-0.3-0.8-1.2-0.5-1.9c0.3,0.3,1,0.3,1.4,0
		c-0.5-0.5-0.8-1.2-0.7-2.1c0.3,0.3,0.7,0.4,1.1,0.3c-0.2-0.5-0.2-1.2-0.3-1.7c-0.1-0.7-0.3-1.5-0.5-1.9c-0.7-0.7-3-1.6-4.5-1.6
		c-0.2,0-0.4,0-0.5,0.1c-0.4,0.1-0.7,0.2-0.7,0.3c-0.2,0.3-0.7,0.4-1.2,0.5C107.2,96.1,106.3,96.4,106,96.6z M108.2,107.8h-0.1
		c-0.1,1-0.6,2.5-1,3l0.6-0.5l0.4,0.5l0.4-0.5l0.6,0.5C108.8,110.2,108.3,108.7,108.2,107.8z M119.2,112.5c0.1-0.2,0.3-0.5,0.3-0.5
		c-0.6-0.9-1.1-1.9-1-3.1c0.1-1.3,0.8-1.7,1.4-1.6c0.5,0,0.8,0.4,0.9,1c0.4-0.4,0.6-0.8,0.6-1.2c0-0.3-0.1-0.8-0.7-1
		c1-0.9,0.9-2.8-0.1-3.5c0.1,1.4-0.9,2.3-1.8,3.2c-1.2,1.2-1.4,2.5-1.2,3.9c-0.7-1.4-1.1-2.7-1-4c0.1-1.5,0.8-3,1.9-2.9
		c0.3,0,0.7,0.2,0.8,0.5c0.5-0.9,0.1-1.8-0.7-1.9c0.8-2-0.5-4-1.6-4.4c0.3,0.6,0.4,1.2,0.4,1.9c-0.1,1.9-1.8,3.5-2,6.3
		c-0.2,3.1,1.5,5.8,3.4,7.8C118.9,112.9,119,112.7,119.2,112.5z M111.9,112h-0.1c-0.1,1-0.6,2.5-1,3l0.6-0.5l0.4,0.5l0.4-0.5
		l0.6,0.5C112.5,114.4,112,113,111.9,112z M109,99.5c0.1-0.2,0.2-0.5,0.2-0.6c0-0.1,0-0.3-0.1-0.4c-0.1-0.1-0.4-0.2-0.7-0.2
		c-0.3,0-0.6,0-0.8,0.2c0,0.1-0.1,0.2-0.1,0.3C108,98.8,108.6,98.9,109,99.5z"/>
</g>
</svg>
